<svg width="128" height="128" viewBox="0 0 128 128" fill="none" xmlns="http://www.w3.org/2000/svg">
<g clip-path="url(#clip0_351_820)">
<circle cx="65" cy="65" r="63" fill="#00AAFF"/>
<circle cx="63" cy="63" r="63" fill="white"/>
<circle cx="63" cy="63" r="62.75" stroke="#3FBFFF" stroke-opacity="0.3" stroke-width="0.5"/>
<path d="M126 64C126 98.2417 98.2417 126 64 126C29.7583 126 2 98.2417 2 64C2 29.7583 29.7583 2 64 2C98.2417 2 126 29.7583 126 64Z" fill="#3FBFFF"/>
<circle cx="64.006" cy="64" r="57" fill="black"/>
<circle cx="64" cy="64.5" r="24.75" fill="black" stroke="url(#paint0_linear_351_820)" stroke-width="0.5" stroke-miterlimit="9.56677" stroke-dasharray="0.5 3 1 2 3 2"/>
<circle cx="64" cy="64.5" r="23.75" fill="black" stroke="url(#paint1_linear_351_820)" stroke-width="0.5" stroke-miterlimit="9.56677" stroke-dasharray="3 0.5 2 1 1 3"/>
<circle cx="64" cy="64.5" r="19.25" fill="black" stroke="white" stroke-width="1.5" stroke-dasharray="1 0.1"/>
<circle cx="64" cy="64.5" r="17" fill="white" stroke="black" stroke-width="2"/>
<path d="M77 64.5C77 71.6797 71.1797 77.5 64 77.5C56.8203 77.5 51 71.6797 51 64.5C51 57.3203 56.8203 51.5 64 51.5C71.1797 51.5 77 57.3203 77 64.5Z" fill="white" stroke="black" stroke-width="2"/>
<circle cx="64" cy="64" r="35" stroke="white" stroke-width="10" stroke-dasharray="1 8 9 18 25 5 8 12"/>
<circle cx="64" cy="64" r="39.5" stroke="white"/>
<line x1="64.0031" y1="7" x2="64.003" y2="121" stroke="white" stroke-width="1.5"/>
<path d="M6.99817 64.4487H120.992" stroke="white" stroke-width="1.5"/>
<line x1="60" y1="18.5" x2="68" y2="18.5" stroke="white"/>
<line x1="19.5" y1="60.5" x2="19.5" y2="68.5" stroke="white"/>
<line x1="109.5" y1="60.5" x2="109.5" y2="68.5" stroke="white"/>
<line x1="60.0032" y1="108.5" x2="68.0032" y2="108.5" stroke="white"/>
<path d="M72 64.5C72 68.9183 68.4183 72.5 64 72.5C59.5817 72.5 56 68.9183 56 64.5C56 60.0817 59.5817 56.5 64 56.5C68.4183 56.5 72 60.0817 72 64.5Z" fill="black"/>
</g>
<defs>
<linearGradient id="paint0_linear_351_820" x1="44.5" y1="61.2191" x2="83.5" y2="67.7809" gradientUnits="userSpaceOnUse">
<stop stop-color="white"/>
<stop offset="1" stop-color="#3FBFFF"/>
</linearGradient>
<linearGradient id="paint1_linear_351_820" x1="75.7017" y1="86.2567" x2="51.7983" y2="44.2433" gradientUnits="userSpaceOnUse">
<stop stop-color="#3FBFFF"/>
<stop offset="0.997302" stop-color="white"/>
</linearGradient>
<clipPath id="clip0_351_820">
<rect width="128" height="128" fill="white"/>
</clipPath>
</defs>
</svg>
